<svg xmlns="http://www.w3.org/2000/svg" viewBox="0 0 352.34 367.19"><defs><style>.cls-1{fill:#004667;}</style></defs><g id="Layer_2" data-name="Layer 2"><g id="Layer_1-2" data-name="Layer 1"><path class="cls-1" d="M302.32,44.29C271.42,16.14,230.6,0,190.32,0H162C121.74,0,80.92,16.14,50,44.29,17.76,73.67,0,111.92,0,152v23.78a57.65,57.65,0,0,0,25,47.56c8,5.51,17.25,10.9,33.58,10.9a55.05,55.05,0,0,0,19.71-3.34,14.29,14.29,0,0,1,.24,2.75c0,4.94-1.68,6.9-6.54,11.82-5.68,5.75-13.46,13.63-13.46,28.68S66.29,297.1,72,302.85c4.86,4.92,6.54,6.88,6.54,11.83s-1.68,6.9-6.54,11.82c-5.68,5.76-13.46,13.64-13.46,28.69a12,12,0,1,0,24,0c0-4.95,1.68-6.91,6.54-11.83,5.68-5.75,13.46-13.63,13.46-28.68S94.73,291.74,89.05,286c-4.86-4.92-6.54-6.88-6.54-11.83s1.68-6.9,6.54-11.82c5.68-5.75,13.46-13.63,13.46-28.68a35.1,35.1,0,0,0-3.19-15.1c4.46-2.63,9.17-4.31,16.92-4.31,11,0,15.84,3.37,22.57,8a91.26,91.26,0,0,0,9.47,6,38.48,38.48,0,0,0-.36,5.41c0,15.05,7.78,22.93,13.46,28.68,4.85,4.92,6.54,6.87,6.54,11.82s-1.69,6.91-6.54,11.83c-5.68,5.75-13.46,13.63-13.46,28.69s7.78,22.93,13.46,28.68c4.85,4.92,6.54,6.88,6.54,11.83a12,12,0,0,0,24,0c0-15.05-7.78-22.93-13.47-28.69-4.85-4.92-6.53-6.87-6.53-11.82s1.68-6.91,6.53-11.83c5.69-5.75,13.47-13.63,13.47-28.69s-7.78-22.93-13.47-28.68c-4.67-4.73-6.4-6.73-6.52-11.28.66,0,1.3.05,2,.05,17.86,0,27.43-6.63,35.11-12,6.73-4.67,11.59-8,22.57-8,6.76,0,11.2,1.28,15.19,3.35,1.37,1.55,2.74,3,4,4.23,4.86,4.92,6.54,6.88,6.54,11.83s-1.68,6.9-6.54,11.82c-5.68,5.75-13.46,13.63-13.46,28.68s7.78,22.94,13.46,28.69c4.86,4.92,6.54,6.88,6.54,11.83s-1.68,6.9-6.54,11.82c-5.68,5.76-13.46,13.64-13.46,28.69a12,12,0,0,0,24,0c0-4.95,1.68-6.91,6.54-11.83,5.68-5.75,13.46-13.63,13.46-28.68s-7.78-22.94-13.46-28.69c-4.86-4.92-6.54-6.88-6.54-11.83s1.68-6.9,6.54-11.82c5.67-5.74,13.42-13.6,13.46-28.59a63.21,63.21,0,0,0,7.95.5,64.25,64.25,0,0,0,7.48-.42c31.69-3.66,55.59-30.83,55.59-63.18V152C352.34,111.92,334.57,73.67,302.32,44.29Z"/></g></g></svg>