<svg xmlns="http://www.w3.org/2000/svg" viewBox="0 0 368.87 239.76"><defs><style>.cls-1{fill:none;stroke:#004667;stroke-linecap:round;stroke-linejoin:round;stroke-width:33px;}</style></defs><g id="Layer_2" data-name="Layer 2"><g id="Layer_1-2" data-name="Layer 1"><path class="cls-1" d="M279.84,149.21c.77-5.1-23.47-166-136.22-126.46C114.57,33,86.22,65.1,86,71.68c19.09-11.82,40.91,16,44.69,21.61C142.17,110.44,119,133,99.32,148.52"/><path class="cls-1" d="M16.5,151c21,0,21,20,42,20s21-20,42-20,21,20,42,20,21-20,42-20,21,20,42,20,21-20,42-20,21,20,42,20,21-20,42-20"/><path class="cls-1" d="M16.5,203.26c21,0,21,20,42,20s21-20,42-20,21,20,42,20,21-20,42-20,21,20,42,20,21-20,42-20,21,20,42,20,21-20,42-20"/></g></g></svg>