<svg xmlns="http://www.w3.org/2000/svg" viewBox="0 0 73.85 56.05"><g id="Layer_2" data-name="Layer 2"><g id="Layer_1-2" data-name="Layer 1"><path d="M30.81,22.68C30.81,10.37,39.74,0,55.72,0c7,0,11.54,3.07,12.85,5.57,1.09,2.08,1.19,4.73-.33,8.28-1.12,2.62-3.83,5.89-3.83,8.83,0,3.45,2.58,6.89,3.9,9.63,1.62,3.38,2.09,4.59,1.12,7.25-1.06,2.89-7.71,5.8-13.71,5.8C39.74,45.36,30.81,35,30.81,22.68Zm22.2,0C53,16,60.76,10.91,55.72,9.36,47.33,6.77,42.33,16,42.33,22.68S47.12,37.77,55.72,36C63,34.5,53,29.38,53,22.68Z"/><path d="M18.33,18.91c0-.37-.07-.71-.4-.83a1,1,0,0,0-.55,0A54.45,54.45,0,0,0,11.12,20,20.7,20.7,0,0,0,5.51,22.9,8.54,8.54,0,0,0,3,33.7a7.66,7.66,0,0,0,3.1,3.18,7.24,7.24,0,0,0,5.5.36A9.62,9.62,0,0,0,16.07,34c.9-1.15,1.59-2.22,2.49-3.37,1.12-1.42,2-1,1.88-2.57-.12-2-2.59-6.66-2.17-8.62A2.53,2.53,0,0,0,18.33,18.91Z"/><path d="M17.5,24.59a40.52,40.52,0,0,0,2.26,9.78c1.65,4.43,6.91,12.07,12.61,8.36.91-.6,3.17-2.25,1.19-6.07-2.51-4.09-4.65-7-4.83-13.78-.14-5.37.49-8.08,3.29-12.65,1.31-2.13,5.27-4.14,4.51-6.8-1.11-3.91-5-3.3-8-1.89C19.21,5.87,16.89,18.69,17.5,24.59Z"/><path d="M.82,47.87a11.52,11.52,0,0,0,6.47,5,35,35,0,0,0,10.25,1.85A47,47,0,0,0,24,54.43a43.24,43.24,0,0,0,5.14-1.13l.63-.17c2.66-.7,5.37-1.68,8.17-1.37a24.11,24.11,0,0,1,5.89,1.9c8.36,3.22,18.36,3.51,26.24-1.11,1.91-1.12,3.75-2,3.75-4.68a4.82,4.82,0,0,0-4.34-4.71c-1.84-.09-4.16,2.3-6.86,2.86a31.07,31.07,0,0,1-7.18,1,33.08,33.08,0,0,1-10.16-1.68c-2.87-.91-5.31-2.17-8.39-2-3.34.15-6.12,1.73-9.39,2.33a18.78,18.78,0,0,1-5.6-.06,11.36,11.36,0,0,1-4.55-1.38c-1.19-.69-2.5-1.56-3.67-2.3-2.33-1.48-5.06-3-7.91-3.08A5.21,5.21,0,0,0,2.3,40,6.18,6.18,0,0,0,.77,47.79Z"/></g></g></svg>